<svg width="245" height="325" viewBox="0 0 245 325" fill="none" xmlns="http://www.w3.org/2000/svg">
<path d="M245 122.006C240.394 187.077 174.447 264.027 121.901 321.423C120.419 323.041 117.903 323.066 116.402 321.465C67.4073 269.244 0 186.596 0 122.006C0 56.1908 52.5344 0 122.006 0C191.477 0 245 56.1908 245 122.006Z" fill="#323640"/>
<path d="M17.3818 58.5956C12.9029 70.2854 95.5278 116.502 115.404 125.001C116.973 125.672 121.98 126.01 123.57 125.388C143.175 117.71 228.989 71.0838 227.933 60.5299L229.825 63.3672L230.771 65.2588L231.716 67.1504C231.716 67.1504 230.525 67.7033 229.586 68.6098L212.786 84.8388C212.108 85.4936 211.985 86.5548 212.453 87.3773C240.118 135.946 194.294 196.048 136.362 162.713C135.309 162.108 133.929 162.536 133.464 163.671L121.203 193.591C120.542 195.204 118.312 195.255 117.581 193.674L104.525 165.461C104.041 164.414 102.766 164.013 101.751 164.536C48.9119 191.769 1.78447 139.685 28.5814 87.383C29.0047 86.5563 28.8484 85.5204 28.1687 84.8949L11.3494 70.9335C11.3494 70.0474 14.456 63.2219 17.3818 58.5956C17.5078 58.2667 17.7027 57.9652 17.97 57.6926C17.7754 57.9819 17.579 58.2838 17.3818 58.5956Z" fill="white"/>
<circle cx="71.8793" cy="124.843" r="37.8312" fill="#FFB71D"/>
<path d="M100.124 119.258C99.7198 114.967 98.3751 110.819 96.1853 107.107C93.9955 103.396 91.0144 100.212 87.4543 97.7842C83.8942 95.3559 79.8425 93.7423 75.5878 93.0582C71.333 92.3741 66.9798 92.6364 62.8379 93.8263C58.6961 95.0162 54.8674 97.1045 51.6246 99.9426C48.3817 102.781 45.8043 106.299 44.0759 110.246C42.3475 114.194 41.5105 118.474 41.6246 122.782C41.7387 127.09 42.801 131.32 44.736 135.17L55.8469 129.587C54.7326 127.369 54.1209 124.933 54.0552 122.453C53.9895 119.972 54.4715 117.507 55.4668 115.234C56.4622 112.96 57.9464 110.934 59.8139 109.3C61.6814 107.666 63.8862 106.463 66.2715 105.778C68.6567 105.093 71.1636 104.942 73.6138 105.335C76.064 105.729 78.3973 106.659 80.4475 108.057C82.4977 109.455 84.2144 111.289 85.4755 113.426C86.7365 115.563 87.5109 117.952 87.7435 120.423L100.124 119.258Z" fill="#323640"/>
<circle cx="37.8312" cy="37.8312" r="37.8312" transform="matrix(-1 0 0 1 211.855 87.0118)" fill="#FFB71D"/>
<path d="M145.779 119.258C146.183 114.967 147.528 110.819 149.718 107.107C151.907 103.396 154.889 100.212 158.449 97.7842C162.009 95.3559 166.06 93.7423 170.315 93.0582C174.57 92.3741 178.923 92.6364 183.065 93.8263C187.207 95.0162 191.036 97.1045 194.278 99.9426C197.521 102.781 200.099 106.299 201.827 110.246C203.555 114.194 204.392 118.474 204.278 122.782C204.164 127.09 203.102 131.32 201.167 135.17L190.056 129.587C191.17 127.369 191.782 124.933 191.848 122.453C191.913 119.972 191.431 117.507 190.436 115.234C189.441 112.96 187.957 110.934 186.089 109.3C184.222 107.666 182.017 106.463 179.632 105.778C177.246 105.093 174.739 104.942 172.289 105.335C169.839 105.729 167.506 106.659 165.455 108.057C163.405 109.455 161.689 111.289 160.427 113.426C159.166 115.563 158.392 117.952 158.159 120.423L145.779 119.258Z" fill="#323640"/>
</svg>
