<svg width="492" height="338" viewBox="0 0 492 338" fill="none" xmlns="http://www.w3.org/2000/svg">
<g clip-path="url(#clip0_2_1751)">
<path d="M206 315.5H133.9C116.1 315.5 112.7 319.7 120.2 322.8C127.7 325.9 91.7997 324.4 85.6997 329.9C79.4997 335.4 95.2997 337.5 112.4 337.5H249.8C263.5 337.5 260.1 327.5 251.9 326.2C243.7 324.9 265.2 326.7 273.4 323.8C281.6 320.9 275.7 315.5 206 315.5Z" fill="#99ADF9"/>
<path d="M311.2 333.8C309.1 336.7 302.1 337.4 290.2 337.1C281.2 336.8 271.8 336.1 271.8 331.9C271.8 327.7 294.7 328.2 302.7 329.1C309.6 329.9 312.4 332.1 311.2 333.8Z" fill="#C5D3FF"/>
<path d="M103.998 319.8C102.598 321.9 97.7977 322.5 89.3977 322.5C83.0977 322.5 76.4977 322.2 76.2977 319.3C76.0977 316.3 92.1977 316.2 97.8977 316.7C102.698 317.1 104.798 318.5 103.998 319.8Z" fill="#C5D3FF"/>
<path d="M456.1 313H420.4C419.049 312.994 417.755 312.455 416.8 311.5C415.845 310.545 415.306 309.251 415.3 307.9V271C415.306 269.649 415.845 268.355 416.8 267.4C417.755 266.445 419.049 265.906 420.4 265.9H456.1C457.451 265.906 458.745 266.445 459.7 267.4C460.655 268.355 461.195 269.649 461.2 271V307.9C461.195 309.251 460.655 310.545 459.7 311.5C458.745 312.455 457.451 312.994 456.1 313Z" fill="#C5DFFF"/>
<path d="M454.4 311.3H420.1C418.801 311.298 417.556 310.781 416.637 309.863C415.719 308.944 415.202 307.699 415.2 306.4V270.8C415.202 269.501 415.719 268.256 416.637 267.338C417.556 266.419 418.801 265.902 420.1 265.9H454.4C455.699 265.902 456.944 266.419 457.862 267.338C458.781 268.256 459.298 269.501 459.3 270.8V306.4C459.298 307.699 458.781 308.944 457.862 309.863C456.944 310.781 455.699 311.298 454.4 311.3Z" fill="#E1ECFF"/>
<path d="M437.6 303.4C445.553 303.4 452 296.953 452 289C452 281.047 445.553 274.6 437.6 274.6C429.647 274.6 423.2 281.047 423.2 289C423.2 296.953 429.647 303.4 437.6 303.4Z" fill="#C5DFFF"/>
<path d="M431.9 295.5C431.661 295.5 431.432 295.405 431.264 295.236C431.095 295.068 431 294.839 431 294.6V283.5C431 283.261 431.095 283.032 431.264 282.864C431.432 282.695 431.661 282.6 431.9 282.6V282.6C432.139 282.6 432.368 282.695 432.536 282.864C432.705 283.032 432.8 283.261 432.8 283.5V294.6C432.8 294.839 432.705 295.068 432.536 295.236C432.368 295.405 432.139 295.5 431.9 295.5Z" fill="#1C3177"/>
<path d="M442.3 295.5C442.061 295.5 441.832 295.405 441.664 295.236C441.495 295.068 441.4 294.839 441.4 294.6V283.5C441.4 283.261 441.495 283.032 441.664 282.864C441.832 282.695 442.061 282.6 442.3 282.6V282.6C442.539 282.6 442.768 282.695 442.936 282.864C443.105 283.032 443.2 283.261 443.2 283.5V294.6C443.2 294.839 443.105 295.068 442.936 295.236C442.768 295.405 442.539 295.5 442.3 295.5Z" fill="#1C3177"/>
<path d="M350.4 250.6C349.699 250.617 348.997 250.583 348.3 250.5C332.8 249.4 322.2 244.1 304.4 217C298.2 207.6 294 198 289.9 188.7C282.9 172.8 276.9 159 263.3 152.6C242.4 142.8 221.9 159 221.7 159.2C221.274 159.531 220.736 159.683 220.2 159.622C219.664 159.561 219.173 159.292 218.833 158.873C218.493 158.455 218.33 157.919 218.38 157.382C218.43 156.845 218.689 156.349 219.1 156C220 155.3 241.8 138 265 148.9C280 155.9 286.6 171 293.6 187C297.6 196.2 301.8 205.7 307.8 214.7C324.7 240.3 334.4 245.3 348.6 246.4C359.2 247.2 364.9 240.8 370.4 234.5C372.239 232.347 374.209 230.31 376.3 228.4C381.128 224.19 387 221.357 393.3 220.2C393.563 220.161 393.831 220.173 394.088 220.237C394.346 220.302 394.589 220.416 394.802 220.574C395.016 220.732 395.196 220.93 395.333 221.158C395.47 221.385 395.561 221.637 395.6 221.9C395.639 222.163 395.627 222.431 395.563 222.688C395.498 222.946 395.384 223.189 395.226 223.402C395.069 223.616 394.87 223.796 394.643 223.933C394.415 224.07 394.163 224.161 393.9 224.2C388.394 225.327 383.265 227.84 379 231.5C377.044 233.277 375.206 235.181 373.5 237.2C367.9 243.6 361.7 250.6 350.4 250.6Z" fill="#1C3177"/>
<path d="M408.6 213.3L417 206.2C417.201 206.029 417.434 205.902 417.686 205.824C417.938 205.746 418.203 205.721 418.464 205.749C418.726 205.777 418.98 205.858 419.21 205.987C419.439 206.116 419.64 206.291 419.8 206.5C420.095 206.888 420.228 207.376 420.173 207.86C420.117 208.345 419.876 208.789 419.5 209.1L411 216.6L408.6 213.3Z" fill="#1C3177"/>
<path d="M403.4 207.3L411.8 200.2C412.001 200.029 412.234 199.902 412.486 199.824C412.738 199.746 413.003 199.721 413.265 199.749C413.526 199.777 413.78 199.858 414.01 199.987C414.239 200.116 414.44 200.291 414.6 200.5C414.895 200.888 415.029 201.376 414.973 201.86C414.917 202.345 414.676 202.789 414.3 203.1L405.8 210.6L403.4 207.3Z" fill="#1C3177"/>
<path d="M414.5 217C411.887 219.981 409.081 222.787 406.1 225.4C401 229.8 394.4 229 391.4 225.6C391.2 225.4 391.1 225.2 390.9 225C389.509 223.233 388.857 220.996 389.081 218.758C389.304 216.52 390.387 214.456 392.1 213C396.2 209.2 403 203.8 403 203.8L411.2 213.3L414.5 217Z" fill="#E1ECFF"/>
<path d="M414.5 217C411.887 219.981 409.081 222.787 406.1 225.4C401 229.8 394.4 229 391.4 225.6C391.2 225.4 391.1 225.2 390.9 225C394.52 225.014 398.065 223.972 401.1 222C404.669 219.382 408.014 216.472 411.1 213.3L414.5 217Z" fill="#C5DFFF"/>
<path d="M261.5 293.6H261.1C254.3 293.5 236.6 280.2 232.1 274C227.5 267.8 223.4 259.9 229 254.8C230.282 253.723 231.841 253.03 233.5 252.8C236.567 252.32 239.703 252.998 242.3 254.7C247.1 257.8 260.6 273.5 264.4 280.2C268.1 286.8 268 293.5 261.5 293.6Z" fill="#1C3177"/>
<path d="M261.5 293.6C262.5 293 263.2 292 263.8 290C264.8 286.5 261.3 279.5 249.8 266.1C242.9 258 237 254.4 233.5 252.8C236.567 252.32 239.703 252.998 242.3 254.7C247.1 257.8 260.6 273.5 264.4 280.2C268.1 286.8 268 293.5 261.5 293.6Z" fill="#384D89"/>
<path d="M227.7 259.101C228.7 256.301 234.5 256.801 239.5 261.701C244.5 266.601 252.1 276.301 250.2 280.501C248.3 284.701 241.1 281.301 235.2 275.501C229.3 269.701 226.1 263.601 227.7 259.101Z" fill="#142966"/>
<path d="M240.3 271.6C240.219 273.415 239.742 275.19 238.9 276.8C238.9 276.8 212 289.6 178.3 266.1C144 242.2 143.9 212.4 143.9 212.1C161.5 194.9 181.3 213.8 181.3 213.8C182.356 221.269 184.584 228.525 187.9 235.3C191 241.5 195.5 247.8 201.9 252C211.54 258.263 223.109 260.854 234.5 259.3C234.5 259.3 237.7 260.3 239.6 266.4C240.253 268.05 240.494 269.836 240.3 271.6Z" fill="#E1ECFF"/>
<path d="M240.3 271.6C240.219 273.415 239.742 275.19 238.9 276.8C238.9 276.8 212 289.6 178.3 266.1C144 242.2 143.9 212.4 143.9 212.1C161.5 194.9 181.3 213.8 181.3 213.8C182.356 221.269 184.584 228.525 187.9 235.3C185.261 237.359 182.329 239.011 179.2 240.2C175.48 241.201 171.651 241.739 167.8 241.8C167.8 241.8 184.7 267.1 209.7 271.7C223.2 274 233.6 273 240.3 271.6Z" fill="#C5DFFF"/>
<path d="M202.599 276.698C202.329 276.697 202.066 276.609 201.85 276.447C201.634 276.284 201.476 276.057 201.399 275.798C201.336 275.634 201.307 275.459 201.313 275.284C201.319 275.108 201.361 274.936 201.436 274.777C201.511 274.618 201.617 274.476 201.748 274.359C201.879 274.243 202.032 274.154 202.199 274.098C202.299 274.098 207.699 271.998 209.299 267.598C210.323 265.012 210.429 262.153 209.599 259.498C209.474 259.179 209.477 258.824 209.608 258.507C209.738 258.191 209.986 257.937 210.299 257.798C210.618 257.673 210.973 257.676 211.29 257.807C211.606 257.937 211.86 258.185 211.999 258.498C213.047 261.767 212.941 265.297 211.699 268.498C209.599 274.098 203.299 276.398 202.999 276.498C202.96 276.567 202.901 276.623 202.829 276.659C202.758 276.695 202.678 276.708 202.599 276.698Z" fill="#C5DFFF"/>
<path d="M179.4 266.4C179.235 266.408 179.071 266.383 178.916 266.327C178.761 266.271 178.619 266.184 178.498 266.073C178.377 265.961 178.28 265.826 178.211 265.676C178.143 265.527 178.105 265.365 178.1 265.2C178.096 264.861 178.216 264.532 178.437 264.275C178.658 264.017 178.964 263.848 179.3 263.8C179.4 263.8 186.4 263.3 189.9 258.7C191.991 256.008 193.149 252.708 193.2 249.3C193.173 248.955 193.285 248.614 193.51 248.351C193.735 248.089 194.055 247.926 194.4 247.9C194.745 247.873 195.086 247.985 195.348 248.21C195.611 248.435 195.773 248.755 195.8 249.1C195.851 253.158 194.51 257.111 192 260.3C187.7 265.8 179.8 266.3 179.4 266.4Z" fill="#C5DFFF"/>
<path d="M132 247.499C131.58 248.461 131.042 249.368 130.4 250.199C129.285 251.645 127.846 252.81 126.2 253.599C125.069 254.182 123.854 254.587 122.6 254.799C122.6 254.799 108.5 241.099 96.1998 216.699C83.8998 192.399 82.9998 164.399 82.9998 164.399C84.036 163.837 85.1046 163.336 86.1998 162.899C89.4367 161.615 92.9533 161.202 96.3998 161.699C98.9488 162.017 101.402 162.869 103.6 164.199C103.6 164.199 104.4 187.399 112.6 208.299C120.8 229.299 132.8 241.699 132.8 241.699C133.054 243.669 132.778 245.671 132 247.499Z" fill="#E1ECFF"/>
<path d="M132 247.5C127.6 243.6 119.2 234.7 111.1 217.5C101.4 196.9 97.4998 170.4 96.4998 161.7C99.0488 162.018 101.502 162.87 103.7 164.2C103.7 164.2 104.5 187.4 112.7 208.3C120.9 229.3 132.9 241.7 132.9 241.7C133.087 243.678 132.778 245.672 132 247.5Z" fill="#F8FBFF"/>
<path d="M126.2 253.6C125.069 254.183 123.854 254.588 122.6 254.8C122.6 254.8 108.5 241.1 96.1998 216.7C83.8998 192.4 82.9998 164.4 82.9998 164.4C84.036 163.838 85.1046 163.337 86.1998 162.9C86.8998 171.9 90.1998 201.5 104.2 224.7C113.8 240.5 121.5 249.1 126.2 253.6Z" fill="#C5DFFF"/>
<path d="M154.1 268C150.648 269.871 146.649 270.472 142.8 269.7C136.7 268.3 134.4 266.3 134.4 266.3C134.4 266.3 132.4 263.3 133.9 261.6L134.1 261.4C135.388 260.333 136.945 259.641 138.6 259.4C140.503 260.889 142.586 262.132 144.8 263.1C147.4 264 152 263.1 153.7 264.2C154.036 264.446 154.292 264.786 154.435 265.178C154.577 265.57 154.6 265.995 154.5 266.4C154.494 266.957 154.357 267.505 154.1 268Z" fill="#E1ECFF"/>
<path d="M154.1 268C150.648 269.871 146.649 270.472 142.8 269.7C136.7 268.3 134.4 266.3 134.4 266.3C134.4 266.3 132.4 263.3 133.9 261.6C135.7 263.3 140 267 145 267.6C148.217 267.994 151.482 267.582 154.5 266.4C154.494 266.957 154.357 267.505 154.1 268Z" fill="#C5DFFF"/>
<path d="M152.2 265.2C148.174 265.863 144.043 265.122 140.5 263.1C138.93 262.319 137.588 261.148 136.6 259.7C136.607 259.047 136.743 258.401 137 257.8C137.257 257.199 137.631 256.656 138.1 256.2C138.9 255.5 140.2 255.2 142.2 255.8C142.2 255.8 146.1 259.2 152.6 256.9C159.1 254.6 158.7 253.2 160.1 252.8C161.1 252.5 162.4 254 162.7 255.7C162.887 256.468 162.817 257.276 162.5 258C161.371 259.844 159.873 261.436 158.101 262.675C156.329 263.914 154.32 264.773 152.2 265.2Z" fill="#E1ECFF"/>
<path d="M152.2 265.2C148.174 265.863 144.043 265.122 140.5 263.1C138.93 262.319 137.588 261.148 136.6 259.7C136.607 259.047 136.743 258.401 137 257.8C137.257 257.199 137.631 256.656 138.1 256.2C140.5 258.6 145.7 262.9 151.4 261.8C155.692 260.863 159.639 258.751 162.8 255.7C162.987 256.468 162.917 257.276 162.6 258C161.436 259.835 159.917 261.418 158.13 262.655C156.344 263.892 154.327 264.757 152.2 265.2Z" fill="#C5DFFF"/>
<path d="M151.1 258.601C147.28 259.251 143.353 258.544 140 256.601C138.499 255.89 137.22 254.783 136.3 253.401C136.315 252.13 136.816 250.914 137.7 250.001C138.5 249.301 139.7 249.001 141.6 249.601C141.6 249.601 145.3 252.801 151.5 250.601C157.7 248.401 157.3 247.101 158.6 246.701C159.5 246.401 160.8 247.901 161.1 249.501C161.283 250.236 161.213 251.011 160.9 251.701C159.842 253.474 158.422 255.005 156.734 256.194C155.045 257.382 153.126 258.203 151.1 258.601Z" fill="#E1ECFF"/>
<path d="M151.1 258.601C147.28 259.251 143.353 258.544 140 256.601C138.499 255.89 137.22 254.783 136.3 253.401C136.315 252.13 136.816 250.914 137.7 250.001C139.9 252.301 144.9 256.401 150.3 255.301C154.357 254.378 158.09 252.374 161.1 249.501C161.283 250.236 161.213 251.011 160.9 251.701C159.842 253.474 158.422 255.005 156.734 256.194C155.045 257.382 153.126 258.203 151.1 258.601Z" fill="#C5DFFF"/>
<path d="M150.399 253.6C147.079 254.722 143.472 254.651 140.199 253.4C138.784 252.974 137.507 252.18 136.499 251.1C136.419 250.533 136.458 249.956 136.613 249.406C136.768 248.855 137.035 248.342 137.399 247.9C137.999 247.2 139.099 246.8 140.899 247C140.899 247 144.599 249.3 149.899 246.6C155.199 243.8 154.699 242.7 155.799 242.1C156.599 241.7 157.899 242.8 158.399 244.2C158.633 244.841 158.668 245.539 158.499 246.2C156.868 249.63 153.961 252.286 150.399 253.6Z" fill="#E1ECFF"/>
<path d="M150.399 253.6C147.079 254.722 143.472 254.651 140.199 253.4C138.784 252.974 137.507 252.18 136.499 251.1C136.419 250.533 136.458 249.956 136.613 249.406C136.768 248.855 137.035 248.342 137.399 247.9C139.699 249.6 144.599 252.6 149.299 250.9C152.866 249.552 155.984 247.231 158.299 244.2C158.533 244.841 158.568 245.539 158.399 246.2C157.629 247.907 156.525 249.442 155.15 250.713C153.776 251.984 152.16 252.966 150.399 253.6Z" fill="#C5DFFF"/>
<path d="M146.9 248.8C146.639 250.151 146.306 251.486 145.9 252.8C145.073 255.748 143.791 258.548 142.1 261.1C141.376 262.034 140.573 262.904 139.7 263.7C138.249 265.125 136.459 266.157 134.5 266.7C134.5 266.7 126.8 259.3 124.6 256.8C123.168 255.215 121.832 253.545 120.6 251.8C120.247 249.883 120.247 247.917 120.6 246C120.857 244.301 121.584 242.707 122.7 241.4C123.283 240.84 123.919 240.337 124.6 239.9C126.839 238.909 129.363 238.767 131.7 239.5C131.7 239.5 139.1 244.1 142.4 245.9C143.998 246.705 145.507 247.677 146.9 248.8Z" fill="#E1ECFF"/>
<path d="M146.9 248.8C146.639 250.151 146.306 251.486 145.9 252.8C143.199 251.259 140.595 249.556 138.1 247.7C133.759 244.834 129.251 242.229 124.6 239.9C126.84 238.909 129.363 238.767 131.7 239.5C131.7 239.5 139.1 244.1 142.4 245.9C143.998 246.705 145.507 247.677 146.9 248.8Z" fill="#F8FBFF"/>
<path d="M139.7 263.6C138.215 264.979 136.437 266.005 134.5 266.6C134.5 266.6 126.8 259.1 124.6 256.7C123.168 255.115 121.832 253.445 120.6 251.7C120.247 249.783 120.247 247.817 120.6 245.9C123.7 249.4 132 258.4 137.8 262.2C138.5 262.8 139.2 263.2 139.7 263.6Z" fill="#C5DFFF"/>
<path d="M111.1 238C110.24 237.934 109.396 237.732 108.6 237.4C108.313 237.236 108.102 236.967 108.009 236.65C107.916 236.334 107.948 235.993 108.1 235.7C108.164 235.555 108.257 235.424 108.373 235.315C108.489 235.206 108.625 235.121 108.774 235.065C108.923 235.01 109.081 234.984 109.24 234.99C109.399 234.996 109.555 235.033 109.7 235.1C109.8 235.2 112.6 236.5 116.3 234.1C120 231.7 120.6 228.7 120.6 228.6C120.611 228.436 120.659 228.276 120.739 228.133C120.819 227.989 120.93 227.866 121.064 227.77C121.198 227.674 121.351 227.61 121.513 227.58C121.674 227.551 121.841 227.558 122 227.6C122.322 227.683 122.601 227.883 122.786 228.159C122.97 228.436 123.046 228.771 123 229.1C123 229.3 122.3 233.3 117.6 236.4C115.639 237.565 113.377 238.122 111.1 238Z" fill="#C5DFFF"/>
<path d="M100.4 217.9C99.1637 217.77 97.9519 217.467 96.7998 217C96.5137 216.835 96.302 216.567 96.2088 216.25C96.1157 215.934 96.1483 215.593 96.2998 215.3C96.3569 215.16 96.4415 215.034 96.5485 214.928C96.6555 214.822 96.7827 214.738 96.9227 214.682C97.0626 214.626 97.2124 214.599 97.3631 214.602C97.5138 214.605 97.6623 214.638 97.7998 214.7C97.8998 214.8 101.4 216.5 106 214.4C110.5 212.4 111.3 209.5 111.3 209.3C111.326 209.146 111.385 208.999 111.471 208.868C111.557 208.737 111.67 208.626 111.802 208.542C111.933 208.457 112.081 208.401 112.236 208.376C112.39 208.352 112.548 208.36 112.7 208.4C113.011 208.516 113.267 208.745 113.415 209.042C113.564 209.339 113.594 209.682 113.5 210C113.5 210.2 112.4 214.2 106.8 216.8C104.803 217.732 102.593 218.112 100.4 217.9Z" fill="#C5DFFF"/>
<path d="M92.7999 195.4C91.1826 195.367 89.6133 194.844 88.2999 193.9C88.0519 193.677 87.8946 193.37 87.8577 193.038C87.8208 192.706 87.907 192.372 88.0999 192.1C88.1853 191.959 88.3019 191.839 88.4407 191.749C88.5795 191.66 88.737 191.603 88.901 191.584C89.065 191.565 89.2312 191.583 89.387 191.638C89.5428 191.693 89.684 191.782 89.7999 191.9C89.8999 191.9 92.0999 193.6 96.9999 192.6C103.2 191.3 104.9 188.9 105 188.8C105.087 188.662 105.201 188.544 105.336 188.454C105.471 188.363 105.623 188.302 105.783 188.273C105.944 188.245 106.108 188.251 106.266 188.29C106.423 188.329 106.571 188.4 106.7 188.5C106.948 188.723 107.105 189.03 107.142 189.362C107.179 189.694 107.093 190.028 106.9 190.3C106.7 190.6 104.5 193.5 97.4999 195.1C95.9567 195.432 94.3728 195.533 92.7999 195.4Z" fill="#C5DFFF"/>
<path d="M107.6 178.7C103.051 180.768 98.0964 181.793 93.1 181.7C90.0076 181.731 86.9427 181.118 84.1 179.9C83.0409 179.463 82.0611 178.855 81.2 178.1C81.2 178.1 81.3 176.3 81 170.4C80 151.8 88.4 149.4 93.9 149.2C95.2233 149.196 96.5391 149.398 97.8 149.8C99.8789 150.586 101.747 151.845 103.257 153.476C104.766 155.107 105.877 157.067 106.5 159.2C108.2 165.3 107.6 178.7 107.6 178.7Z" fill="#1C3177"/>
<path d="M95.2999 160.7C88.9999 164.1 86.3999 161.9 86.3999 161.9C86.3999 161.9 84.8999 167 84.1999 177.1C84.0999 178.1 84.0999 179.1 83.9999 179.9C82.9408 179.463 81.961 178.855 81.0999 178.1C81.0999 178.1 81.1999 176.3 80.8999 170.4C79.8999 151.8 88.2999 149.4 93.7999 149.2C95.1232 149.196 96.439 149.398 97.6999 149.8C99.2999 152.5 101.1 157.6 95.2999 160.7Z" fill="#384D89"/>
<path d="M223 191.9C222.7 193.5 222.4 195 222 196.5C219.6 205.8 215.4 213.3 209.5 218.2C192.6 232.3 169.4 239.8 139.6 220.5C115.8 205.1 93.8999 170.2 85.9999 156.7C83.9999 153.3 82.8999 151.2 82.8999 151.2C82.8999 151.2 96.5999 150.5 118.2 140.6C128.852 135.619 139.057 129.73 148.7 123C168.2 109.4 179.5 96.7 186 86.8C193.7 75.2 194.8 67.6 194.8 67.6C194.8 67.6 196.7 71.1 200 78.8C206.526 94.6991 212.135 110.959 216.8 127.5C224.1 152.7 226.1 175 223 191.9Z" fill="#E1ECFF"/>
<path d="M200 78.8C197.177 84.34 193.935 89.6556 190.3 94.7C179.806 108.861 166.787 120.964 151.9 130.4C142.459 136.602 132.526 142.02 122.2 146.6C104.4 154.5 92.0998 156.3 85.8998 156.6C83.8998 153.2 82.7998 151.1 82.7998 151.1C82.7998 151.1 96.4998 150.4 118.1 140.5C128.752 135.519 138.957 129.63 148.6 122.9C168.1 109.3 179.4 96.6 185.9 86.7C193.6 75.1 194.7 67.5 194.7 67.5C196.663 71.1712 198.432 74.9431 200 78.8Z" fill="#1C3177"/>
<path d="M222 196.5C219.6 205.8 215.4 213.3 209.5 218.2C192.6 232.3 169.4 239.8 139.6 220.5C115.8 205.1 93.8999 170.2 85.9999 156.7C83.9999 153.3 82.8999 151.2 82.8999 151.2C82.8999 151.2 96.5999 150.5 118.2 140.6C126.7 153.8 145.5 181.1 164 197.2C185.5 216 210 204.9 222 196.5Z" fill="#C5DFFF"/>
<path d="M122.2 146.7C104.4 154.6 92.0998 156.4 85.8998 156.7C83.8998 153.3 82.7998 151.2 82.7998 151.2C82.7998 151.2 96.4998 150.5 118.1 140.6C119.3 142.4 120.7 144.5 122.2 146.7Z" fill="#142966"/>
<path d="M220.2 182.2C217.7 171.9 214.3 158.9 210 145.1C203.1 122.7 195.3 105.4 191 97.9C197 88.8 198.1 85.1 198.1 85.1C198.1 85.1 199.6 87.9 202.2 93.9C207.285 106.341 211.659 119.062 215.3 132C221.1 151.6 222.7 169 220.2 182.2Z" fill="#F8FBFF"/>
<path d="M200 78.8C197.177 84.34 193.935 89.6556 190.3 94.7C188.7 91.6 187.3 88.9 186 86.7C193.7 75.1 194.8 67.5 194.8 67.5C194.8 67.5 196.8 71.2 200 78.8Z" fill="#384D89"/>
<path d="M168.7 190.6C168.7 190.6 159.7 197.4 141.4 205C136.3 207.1 131.3 208.9 126.8 210.4L125.6 209.2C112.8 196.9 101.3 181 93.5 169C93 168.3 92.6 167.6 92.2 167C102.643 164.191 112.842 160.546 122.7 156.1C139.6 148.6 143.9 145.2 143.9 145.2L168.7 190.6Z" fill="#E1ECFF"/>
<path d="M165.9 190.5C165.9 190.5 157.8 197 140.6 203.8C135.3 205.9 130 207.7 125.5 209.2C112.7 196.9 101.2 181 93.3999 169L94.9999 168.6C104.641 165.949 114.068 162.572 123.2 158.5C138.8 151.5 143.2 149.2 143.2 149.2L165.9 190.5Z" fill="#1C3177"/>
<path d="M121.299 194.4C120.973 194.408 120.655 194.302 120.399 194.1L109.399 184.3L108.699 186.4C108.643 186.566 108.554 186.72 108.438 186.851C108.321 186.982 108.179 187.088 108.02 187.163C107.861 187.238 107.689 187.28 107.513 187.286C107.338 187.292 107.163 187.263 106.999 187.2C106.833 187.144 106.679 187.055 106.548 186.939C106.417 186.822 106.311 186.68 106.236 186.521C106.161 186.362 106.119 186.19 106.113 186.014C106.107 185.839 106.136 185.664 106.199 185.5L107.599 181.5C107.679 181.296 107.8 181.111 107.955 180.956C108.11 180.801 108.295 180.68 108.499 180.6C108.724 180.553 108.957 180.555 109.182 180.607C109.406 180.659 109.617 180.759 109.799 180.9L119.499 189.5L118.999 185.6C118.941 185.309 118.989 185.007 119.136 184.75C119.284 184.493 119.519 184.297 119.799 184.2L152.899 169.9C153.063 169.826 153.24 169.786 153.42 169.782C153.599 169.777 153.778 169.808 153.945 169.873C154.113 169.939 154.266 170.036 154.395 170.161C154.525 170.286 154.628 170.435 154.699 170.6C154.773 170.764 154.813 170.941 154.817 171.121C154.822 171.3 154.791 171.479 154.726 171.646C154.66 171.814 154.563 171.967 154.438 172.096C154.313 172.226 154.164 172.329 153.999 172.4L121.799 186.3L122.699 192.8C122.743 193.077 122.7 193.361 122.574 193.613C122.448 193.864 122.247 194.069 121.999 194.2C121.776 194.3 121.541 194.367 121.299 194.4Z" fill="#FFCE94"/>
<path d="M194.8 67.6C194.8 67.6 193.3 78.3 181.8 93.2C175.2 101.8 165.2 111.8 150.2 122C125.6 138.8 106.2 145.9 94.5998 149C90.7443 150.102 86.7935 150.839 82.7998 151.2C82.7998 151.2 57.6998 108.4 61.7998 69.6C62.8998 59.5 65.9998 51.1 70.6998 44.2C74.0394 39.2301 78.2384 34.8956 83.0998 31.4C96.9998 21.4 115.7 17.9 133.9 20.1C167.1 24.2 194.8 67.6 194.8 67.6Z" fill="#FEC272"/>
<path d="M194.8 67.6C194.8 67.6 194.1 72.4 190.3 80C187.916 84.7049 185.068 89.1602 181.8 93.3C175.2 101.9 165.2 111.9 150.2 122.1C123.7 140.1 103.2 147 92.0998 149.7C89.0446 150.467 85.9357 151.002 82.7998 151.3C82.7998 151 82.8998 128 120.3 98.8C157.9 69.3 194.8 67.6 194.8 67.6Z" fill="#FCAD4F"/>
<path d="M190.3 80C187.916 84.7048 185.068 89.1602 181.8 93.3C175.2 101.9 165.2 111.9 150.2 122.1C123.7 140.1 103.2 147 92.0999 149.7C96.2999 140.1 105.5 125.9 126.2 109.7C144.927 94.8861 166.891 84.7093 190.3 80V80Z" fill="#F99D3A"/>
<path d="M194.8 67.6C194.8 67.6 193.3 78.3 181.8 93.2C178.213 86.9433 174.169 80.9604 169.7 75.3C169.7 75.3 155 88.6 143 79.1C131 69.5 140 51.9 140 51.9C131.212 43.3127 120.197 37.3549 108.2 34.7C99.9025 32.9221 91.475 31.8185 82.9998 31.4C96.8998 21.4 115.6 17.9 133.8 20.1C167.1 24.2 194.8 67.6 194.8 67.6Z" fill="#FFDBB3"/>
<path d="M94.6999 149C90.8444 150.102 86.8936 150.839 82.8999 151.2C82.8999 151.2 57.7999 108.4 61.8999 69.6C62.9999 59.5 66.0999 51.1 70.7999 44.2C68.8243 66.7231 71.2702 89.4152 77.9999 111C82.2284 124.214 87.8254 136.949 94.6999 149Z" fill="#FFDBB3"/>
<path d="M208.9 323.2C208.914 323.835 208.881 324.47 208.8 325.1C208.4 331 190.3 332.1 177.7 332.7C165.3 333.3 152.2 329.8 156.7 325.7L156.9 325.5C160.1 322.8 166.3 319.7 173.2 317.2C177.189 315.725 181.263 314.489 185.4 313.5C190.8 312.2 201.8 309.6 205.4 312.3C206.151 312.895 206.765 313.646 207.2 314.5C208.427 317.231 209.009 320.208 208.9 323.2Z" fill="#1C3177"/>
<path d="M208.9 323.2C208.914 323.835 208.881 324.47 208.8 325.1C208.4 331 190.3 332.1 177.7 332.7C165.3 333.3 152.2 329.8 156.7 325.7C159.4 327.3 165.3 329.2 177.6 328.7C194.4 328 204.6 325.2 208.9 323.2Z" fill="#384D89"/>
<path d="M207.099 314.5C206.013 315.459 204.802 316.267 203.499 316.9C198.699 319.3 184.099 321.9 175.199 320.4C171.299 319.7 171.599 318.5 173.099 317.2C177.088 315.725 181.162 314.489 185.299 313.5C190.699 312.2 201.699 309.6 205.299 312.3C206.05 312.895 206.664 313.646 207.099 314.5Z" fill="#142966"/>
<path d="M184.6 266.5C188.6 292.1 203.2 311.7 203.2 311.7C202.036 313.205 200.614 314.491 199 315.5C197.655 316.342 196.211 317.014 194.7 317.5C192.161 318.188 189.515 318.392 186.9 318.1C185.212 317.932 183.54 317.631 181.9 317.2C181.9 317.2 157 285.1 153.9 248.5C150.8 211.9 170.5 193.5 170.5 193.5C170.647 193.42 170.782 193.319 170.9 193.2C174.114 191.22 177.811 190.163 181.586 190.145C185.361 190.127 189.068 191.15 192.3 193.1C193.027 193.488 193.729 193.922 194.4 194.4C202.5 199.7 203.7 205.1 203.7 205.1C199.917 208.596 196.68 212.641 194.1 217.1C190 224.1 180.6 240.9 184.6 266.5Z" fill="#E1ECFF"/>
<path d="M184.6 266.5C188.6 292.1 203.2 311.7 203.2 311.7C202.036 313.205 200.614 314.491 199 315.5C191.7 305.4 174.2 274.8 174.8 245.7C175.3 219.1 189.1 200.6 194.5 194.4C202.6 199.7 203.8 205.1 203.8 205.1C200.016 208.596 196.78 212.641 194.2 217.1C190 224.1 180.6 240.9 184.6 266.5Z" fill="#C5DFFF"/>
<path d="M186.8 318C185.112 317.832 183.44 317.531 181.8 317.1C181.8 317.1 156.9 285 153.8 248.4C150.7 211.8 170.4 193.4 170.4 193.4C170.547 193.32 170.682 193.219 170.8 193.1C167 200.9 158.5 221.1 159.3 243.9C160.3 273.2 173 295.8 181.9 310.2C183.6 313.1 185.3 315.7 186.8 318Z" fill="#F8FBFF"/>
<path d="M167.8 292C167.629 292.009 167.459 291.977 167.302 291.908C167.146 291.838 167.008 291.733 166.9 291.6C166.647 291.354 166.496 291.022 166.478 290.67C166.459 290.317 166.574 289.971 166.8 289.7C169.309 287.399 172.323 285.721 175.6 284.8C181.5 283 188 285 188.3 285.1C188.64 285.213 188.924 285.453 189.091 285.769C189.259 286.086 189.298 286.455 189.2 286.8C189.087 287.14 188.847 287.424 188.531 287.591C188.214 287.759 187.845 287.798 187.5 287.7C187.4 287.7 181.5 285.9 176.4 287.4C171.3 289 168.8 291.5 168.8 291.6C168.678 291.743 168.524 291.854 168.349 291.923C168.175 291.993 167.987 292.019 167.8 292Z" fill="#C5DFFF"/>
<path d="M157.496 260C157.251 260.008 157.008 259.947 156.795 259.823C156.583 259.699 156.41 259.518 156.296 259.3C156.198 259.144 156.132 258.97 156.104 258.788C156.076 258.605 156.086 258.419 156.133 258.241C156.179 258.063 156.263 257.896 156.377 257.751C156.491 257.607 156.634 257.487 156.796 257.4C160.745 255.241 165.108 253.946 169.596 253.6C174.111 253.482 178.551 254.776 182.296 257.3C182.446 257.401 182.573 257.531 182.67 257.684C182.767 257.836 182.832 258.006 182.86 258.185C182.888 258.363 182.879 258.545 182.834 258.72C182.789 258.895 182.708 259.058 182.596 259.2C182.495 259.35 182.365 259.477 182.213 259.574C182.06 259.671 181.89 259.736 181.712 259.764C181.533 259.792 181.351 259.783 181.176 259.738C181.002 259.692 180.838 259.611 180.696 259.5C180.596 259.5 175.596 256 169.696 256.3C165.621 256.607 161.661 257.801 158.096 259.8C157.996 260 157.696 260 157.496 260Z" fill="#C5DFFF"/>
<path d="M184.9 233.596C184.729 233.605 184.559 233.573 184.402 233.504C184.246 233.434 184.108 233.329 184 233.196C183.9 233.096 176.5 226.396 169.1 225.496C161.9 224.596 157.5 227.696 157.5 227.796C157.205 227.998 156.844 228.08 156.49 228.024C156.137 227.968 155.819 227.779 155.6 227.496C155.398 227.201 155.316 226.84 155.372 226.486C155.428 226.133 155.617 225.814 155.9 225.596C156.1 225.396 161.2 221.696 169.5 222.796C177.7 223.896 185.5 230.896 185.9 231.196C186.037 231.311 186.149 231.452 186.228 231.612C186.308 231.772 186.354 231.946 186.364 232.124C186.373 232.302 186.345 232.481 186.283 232.648C186.22 232.815 186.124 232.968 186 233.096C185.69 233.366 185.308 233.54 184.9 233.596Z" fill="#C5DFFF"/>
<path d="M272.201 205.2C270.765 209.432 267.993 213.082 264.301 215.6C258.301 219.5 254.901 219.9 254.901 219.9C254.901 219.9 251.001 219.3 251.001 216.8V216.5C251.246 214.646 251.97 212.889 253.101 211.4C255.811 210.928 258.461 210.157 261.001 209.1C263.801 207.7 266.801 203.2 269.001 202.7C269.455 202.618 269.923 202.668 270.349 202.845C270.775 203.023 271.14 203.32 271.401 203.7C271.769 204.139 272.042 204.65 272.201 205.2Z" fill="#E1ECFF"/>
<path d="M272.201 205.2C270.765 209.432 267.993 213.082 264.301 215.6C258.301 219.5 254.901 219.9 254.901 219.9C254.901 219.9 251.001 219.3 251.001 216.8C253.701 216.6 260.101 215.8 264.601 212.2C267.512 209.907 269.842 206.961 271.401 203.6C271.762 204.081 272.033 204.623 272.201 205.2Z" fill="#C5DFFF"/>
<path d="M268.501 204.7C265.753 208.487 261.862 211.291 257.401 212.7C255.592 213.417 253.63 213.658 251.701 213.4C251.194 212.91 250.798 212.318 250.539 211.662C250.281 211.007 250.165 210.304 250.201 209.6C250.301 208.4 251.101 207.1 253.201 205.9C253.201 205.9 258.901 205.2 262.501 198.2C266.101 191.2 264.601 190.5 265.501 189.1C266.101 188.1 268.301 188.2 269.801 189.1C270.532 189.51 271.072 190.193 271.301 191C272.201 193.5 272.101 199.8 268.501 204.7Z" fill="#E1ECFF"/>
<path d="M268.501 204.7C265.753 208.487 261.862 211.291 257.401 212.7C255.592 213.417 253.63 213.658 251.701 213.4C251.194 212.91 250.798 212.318 250.539 211.662C250.281 211.007 250.165 210.304 250.201 209.6C253.901 209.4 261.501 208.4 265.201 202.9C267.966 198.806 269.556 194.034 269.801 189.1C270.532 189.51 271.072 190.193 271.301 191C272.201 193.5 272.101 199.8 268.501 204.7Z" fill="#C5DFFF"/>
<path d="M261.801 201.6C259.185 205.215 255.465 207.882 251.201 209.2C249.482 209.859 247.623 210.066 245.801 209.8C245.321 209.337 244.948 208.775 244.706 208.154C244.464 207.532 244.36 206.866 244.401 206.2C244.501 205.1 245.301 203.8 247.301 202.7C247.301 202.7 252.701 202.1 256.101 195.4C259.501 188.8 258.101 188.1 258.901 186.7C259.501 185.8 261.501 185.8 263.001 186.7C263.701 187.1 264.234 187.739 264.501 188.5C265.301 191 265.201 197 261.801 201.6Z" fill="#E1ECFF"/>
<path d="M261.801 201.6C259.185 205.215 255.465 207.882 251.201 209.2C249.482 209.859 247.623 210.066 245.801 209.8C245.321 209.337 244.948 208.775 244.706 208.154C244.464 207.532 244.36 206.866 244.401 206.2C247.901 206 255.101 205.1 258.701 199.9C261.287 195.993 262.804 191.476 263.101 186.8C263.801 187.2 264.334 187.839 264.601 188.6C265.041 190.843 265.019 193.153 264.538 195.388C264.056 197.623 263.125 199.736 261.801 201.6Z" fill="#C5DFFF"/>
<path d="M259.101 210.5C259.183 212.943 258.704 215.371 257.701 217.6C257.119 218.878 256.343 220.059 255.401 221.1C255.401 221.1 230.101 230 203.501 207.8C189.801 196.4 178.801 181.5 171.401 169.8C167.41 163.541 163.771 157.064 160.501 150.4C160.501 150.4 158.401 143.9 162.301 138.3C163.764 136.18 165.766 134.489 168.101 133.4C172.801 131 176.701 130.8 179.801 131.6C182.981 132.438 185.815 134.257 187.901 136.8C187.901 136.8 191.801 145.4 197.601 156C204.401 168.3 213.801 183.3 222.801 190.3C239.501 203.3 253.401 198.3 253.401 198.3C254.517 199.47 255.522 200.743 256.401 202.1C257.501 204.2 259.001 207.2 259.101 210.5Z" fill="#E1ECFF"/>
<path d="M197.3 155.8C194.053 160.901 189.196 164.772 183.5 166.8C179.553 168.328 175.414 169.304 171.2 169.7C167.209 163.441 163.57 156.964 160.3 150.3C160.3 150.3 156.7 139 167.8 133.2C180.3 126.7 187.6 136.6 187.6 136.6C187.6 136.6 191.5 145.3 197.3 155.8Z" fill="#C5DFFF"/>
<path d="M257.601 217.5C257.019 218.778 256.244 219.959 255.301 221C255.301 221 230.001 229.9 203.401 207.7C189.701 196.3 178.701 181.4 171.301 169.7C167.31 163.441 163.671 156.964 160.401 150.3C160.401 150.3 158.301 143.8 162.201 138.2C165.501 145.7 179.601 176.3 197.501 193.9C218.001 214 229.101 216.5 248.801 217.3C252.001 217.4 255.001 217.5 257.601 217.5Z" fill="#C5DFFF"/>
<path d="M256.1 202C251 203.5 243.9 204.6 236.5 202.3C222.7 198 211.4 189.3 200.3 172.6C191.2 158.8 182.4 138.4 179.6 131.5C182.78 132.338 185.614 134.157 187.7 136.7C187.7 136.7 191.6 145.3 197.4 155.9C204.2 168.2 213.6 183.2 222.6 190.2C239.3 203.2 253.2 198.2 253.2 198.2C254.294 199.364 255.266 200.637 256.1 202Z" fill="#F8FBFF"/>
<path d="M186.799 186.3C185.377 186.305 183.963 186.103 182.599 185.7C182.26 185.564 181.988 185.299 181.842 184.964C181.696 184.628 181.687 184.249 181.819 183.908C181.95 183.566 182.21 183.29 182.543 183.139C182.877 182.988 183.256 182.974 183.599 183.1C183.799 183.2 188.499 184.8 194.799 181.4C198.556 179.298 201.352 175.821 202.599 171.7C202.638 171.529 202.711 171.368 202.813 171.225C202.915 171.083 203.043 170.961 203.192 170.869C203.341 170.776 203.506 170.713 203.679 170.684C203.852 170.655 204.028 170.661 204.199 170.7C204.37 170.739 204.531 170.812 204.674 170.914C204.816 171.015 204.938 171.144 205.03 171.293C205.123 171.441 205.186 171.607 205.215 171.78C205.244 171.952 205.238 172.129 205.199 172.3C204.512 174.735 203.344 177.007 201.764 178.982C200.184 180.957 198.224 182.596 195.999 183.8C193.204 185.423 190.032 186.285 186.799 186.3Z" fill="#C5DFFF"/>
<path d="M205.9 208.7C205.529 208.7 205.173 208.552 204.91 208.29C204.647 208.027 204.5 207.671 204.5 207.3C204.5 206.929 204.647 206.573 204.91 206.31C205.173 206.047 205.529 205.9 205.9 205.9C206 205.9 212.2 205.8 215.7 201.5C219.3 197.1 218.6 190.9 218.6 190.8C218.58 190.623 218.595 190.443 218.645 190.272C218.695 190.1 218.777 189.94 218.889 189.801C219 189.662 219.138 189.546 219.295 189.46C219.451 189.374 219.623 189.32 219.8 189.3C220.155 189.275 220.506 189.385 220.784 189.607C221.062 189.83 221.246 190.148 221.3 190.5C221.3 190.8 222.1 197.9 217.8 203.2C213.5 208.7 206.2 208.7 205.9 208.7Z" fill="#C5DFFF"/>
<path d="M227.899 220.4C227.616 220.402 227.34 220.316 227.107 220.155C226.874 219.994 226.697 219.765 226.599 219.5C226.468 219.155 226.479 218.773 226.629 218.436C226.779 218.098 227.056 217.834 227.399 217.7C229.152 216.929 230.71 215.774 231.956 214.32C233.202 212.866 234.106 211.15 234.599 209.3C236.099 203.1 233.999 199.5 233.899 199.4C233.713 199.091 233.651 198.724 233.725 198.371C233.799 198.019 234.004 197.707 234.299 197.5C234.608 197.314 234.975 197.252 235.328 197.326C235.68 197.4 235.992 197.605 236.199 197.9C236.299 198.1 239.099 202.6 237.199 209.9C236.589 212.177 235.471 214.286 233.93 216.07C232.388 217.854 230.463 219.266 228.299 220.2C228.199 220.4 228.099 220.4 227.899 220.4Z" fill="#C5DFFF"/>
<path d="M198.097 143.8C197.891 144.826 197.589 145.83 197.197 146.8C195.797 150.2 192.497 155.8 184.997 160.7C173.397 168.2 163.097 165 163.097 165C158.289 158.142 155.234 150.211 154.197 141.9C153.297 134.2 158.397 128.2 164.997 125.3C169.897 123.2 175.597 122.8 180.197 124.8C191.097 129.7 198.097 143.8 198.097 143.8Z" fill="#1C3177"/>
<path d="M198.101 143.8C197.895 144.826 197.593 145.83 197.201 146.8C197.201 146.7 197.101 146.7 197.101 146.6C187.801 134.3 180.501 131.8 180.501 131.8C180.501 131.8 177.801 138.2 168.901 134.5C162.701 132 163.801 127.6 165.101 125.3C170.001 123.2 175.701 122.8 180.301 124.8C191.101 129.7 198.101 143.8 198.101 143.8Z" fill="#384D89"/>
<path d="M76.599 90.9C75.7008 90.7478 74.7783 90.9417 74.0174 91.4428C73.2565 91.9438 72.714 92.7147 72.499 93.6C71.2776 98.6484 70.3097 103.755 69.599 108.9C69.099 113.1 68.899 116.6 68.799 119C68.7732 119.847 69.0514 120.676 69.5832 121.336C70.1151 121.997 70.8655 122.445 71.699 122.6C72.1673 122.674 72.6459 122.652 73.1053 122.534C73.5646 122.417 73.995 122.206 74.3698 121.916C74.7446 121.625 75.0559 121.261 75.2845 120.845C75.5131 120.43 75.6542 119.972 75.699 119.5C76.0052 115.065 76.6065 110.655 77.499 106.3C78.499 101.2 79.199 97.6 79.699 95.2C79.8267 94.2233 79.5771 93.2347 79.0011 92.4357C78.4251 91.6367 77.566 91.0875 76.599 90.9Z" fill="#1C3177"/>
<path d="M59.3001 101.6C59.4038 101.13 59.6123 100.689 59.91 100.311C60.2077 99.9324 60.5869 99.6261 61.0194 99.4146C61.452 99.2032 61.9266 99.092 62.4081 99.0895C62.8895 99.087 63.3653 99.1931 63.8001 99.4C66.8001 100.7 71.2001 102.6 75.4001 104.1C79.7001 105.6 83.7001 107.1 86.2001 108.1C87.0195 108.406 87.6971 109.004 88.1031 109.779C88.509 110.554 88.6148 111.452 88.4001 112.3C88.2827 112.757 88.0744 113.187 87.7876 113.562C87.5008 113.937 87.1414 114.251 86.7308 114.484C86.3201 114.717 85.8667 114.866 85.3976 114.92C84.9284 114.974 84.4531 114.933 84.0001 114.8C79.2379 113.454 74.5625 111.817 70.0001 109.9C66.7642 108.547 63.6237 106.977 60.6001 105.2C60.0572 104.791 59.6452 104.233 59.4144 103.593C59.1835 102.954 59.1438 102.261 59.3001 101.6Z" fill="#1C3177"/>
<path d="M119.596 66.5C118.422 66.3271 117.226 66.6011 116.245 67.2678C115.263 67.9344 114.568 68.9452 114.296 70.1C113.196 75.1 111.596 83.5 110.896 90.1C110.396 95.6 110.096 100.1 110.096 103.2C110.053 104.289 110.42 105.355 111.123 106.187C111.826 107.02 112.815 107.56 113.896 107.7C114.504 107.793 115.125 107.759 115.72 107.6C116.314 107.44 116.869 107.158 117.348 106.773C117.828 106.387 118.222 105.906 118.506 105.36C118.79 104.813 118.956 104.214 118.996 103.6C119.196 99.6 119.796 93.5 120.896 86.5C121.996 79.8 122.896 75.1 123.396 72C123.531 71.3874 123.538 70.7536 123.418 70.138C123.297 69.5224 123.051 68.9383 122.694 68.4222C122.337 67.9061 121.878 67.469 121.345 67.1383C120.812 66.8076 120.217 66.5903 119.596 66.5Z" fill="#1C3177"/>
<path d="M97.3968 80.9C97.5368 80.2949 97.8066 79.7275 98.1876 79.237C98.5686 78.7465 99.0517 78.3447 99.6033 78.0594C100.155 77.7741 100.762 77.612 101.383 77.5845C102.003 77.557 102.622 77.6646 103.197 77.9C107.097 79.5 112.797 81.8 118.297 83.7C123.897 85.6 129.097 87.4 132.397 88.6C133.468 88.9747 134.359 89.7369 134.896 90.7364C135.433 91.736 135.576 92.9003 135.297 94C135.152 94.601 134.888 95.1669 134.522 95.6647C134.155 96.1625 133.693 96.582 133.162 96.8987C132.631 97.2154 132.042 97.4228 131.43 97.5089C130.818 97.595 130.194 97.558 129.597 97.4C123.409 95.7892 117.33 93.7851 111.397 91.4C107.174 89.7728 103.094 87.7994 99.1968 85.5C98.4946 84.98 97.9533 84.2726 97.6349 83.459C97.3166 82.6454 97.234 81.7584 97.3968 80.9Z" fill="#1C3177"/>
<path d="M458.1 257.6C461.486 258.739 464.518 260.737 466.9 263.4C470.6 267.8 471.1 274.9 471.1 274.9L491.3 265.5C491.3 265.5 481.1 269.4 477.7 262.6C474.3 255.8 485.6 245 485.6 245C485.6 245 473.1 255.2 468.2 253.7C463.3 252.2 462.5 246.1 462.5 246.1L458.1 257.6Z" fill="#FEC272"/>
<path d="M439 255.3L442.6 255.4L448.2 214.4L435.5 212L439 255.3Z" fill="#D2E9FF"/>
<path d="M447.8 255.5L456.2 217.1L468.3 223L450 256.5L447.8 255.5Z" fill="#D2E9FF"/>
<path d="M47.5999 61.7L45.4999 66.3L1.59985 52.8L7.49985 35.5L47.5999 61.7Z" fill="#FEC272"/>
<path d="M54.2 46.5L50.2999 52.1L0.699951 14.3L14.4 0L54.2 46.5Z" fill="#FEC272"/>
</g>
<defs>
<clipPath id="clip0_2_1751">
<rect width="490.6" height="337.5" fill="white" transform="translate(0.699951)"/>
</clipPath>
</defs>
</svg>
